<?xml version="1.0" encoding="UTF-8"?>
<svg width="30px" height="30px" viewBox="0 0 30 30" version="1.1" xmlns="http://www.w3.org/2000/svg" xmlns:xlink="http://www.w3.org/1999/xlink">
    <!-- Generator: Sketch 51.3 (57544) - http://www.bohemiancoding.com/sketch -->
    <title>Github</title>
    <desc>Created with Sketch.</desc>
    <defs></defs>
    <g id="Page-1" stroke="none" stroke-width="1" fill="none" fill-rule="evenodd">
        <g id="Under-construction" transform="translate(-671.000000, -606.000000)" fill="#2B8CAD">
            <g id="Github-link" transform="translate(671.000000, 606.000000)">
                <g id="Github">
                    <path d="M14.9986187,0 C6.71659658,0 0,6.71567574 0,15.0004604 C0,21.6277357 4.29755364,27.2494552 10.2581417,29.2329415 C11.0086252,29.3710673 11.2821142,28.9078854 11.2821142,28.5100832 C11.2821142,28.1546395 11.2692225,27.21078 11.2618558,25.9593603 C7.0895362,26.8654655 6.20921452,23.9482489 6.20921452,23.9482489 C5.52687314,22.2152307 4.54341754,21.7538905 4.54341754,21.7538905 C3.18149728,20.8238436 4.64655146,20.8422604 4.64655146,20.8422604 C6.15212253,20.9481568 6.94404371,22.3883483 6.94404371,22.3883483 C8.28202216,24.6803155 10.4552012,24.0182326 11.3097394,23.6342429 C11.4460235,22.6655207 11.8336966,22.0043586 12.2618865,21.6295773 C8.93121336,21.2511127 5.42926425,19.9637803 5.42926425,14.215906 C5.42926425,12.578655 6.01399675,11.2388348 6.97351054,10.1909205 C6.81880966,9.81153504 6.3040609,8.28570552 7.12084472,6.22118543 C7.12084472,6.22118543 8.37963105,5.81785813 11.2452807,7.75898585 C12.44145,7.42564228 13.725099,7.25989134 15.0004604,7.25344547 C16.274901,7.25989134 17.5576291,7.42564228 18.7556401,7.75898585 C21.6194481,5.81785813 22.8763928,6.22118543 22.8763928,6.22118543 C23.6950183,8.28570552 23.1802695,9.81153504 23.0264895,10.1909205 C23.9878449,11.2388348 24.5679732,12.578655 24.5679732,14.215906 C24.5679732,19.9785138 21.0604991,21.2465085 17.7196967,21.6176064 C18.2574665,22.0807882 18.7372234,22.9961018 18.7372234,24.3957764 C18.7372234,26.400442 18.7188066,28.0183554 18.7188066,28.5100832 C18.7188066,28.9115688 18.9895331,29.378434 19.7501458,29.2320206 C25.7061297,27.2439301 30,21.625894 30,15.0004604 C30,6.71567574 23.2834034,0 14.9986187,0" id="Fill-4"></path>
                </g>
            </g>
        </g>
    </g>
</svg>