<?xml version="1.0" encoding="UTF-8"?>
<svg width="30px" height="30px" viewBox="0 0 30 30" version="1.1" xmlns="http://www.w3.org/2000/svg" xmlns:xlink="http://www.w3.org/1999/xlink">
    <!-- Generator: Sketch 51.3 (57544) - http://www.bohemiancoding.com/sketch -->
    <title>LinkedIn</title>
    <desc>Created with Sketch.</desc>
    <defs>
        <polygon id="path-1" points="1.17428113e-05 0 29.8204651 0 29.8204651 29.8143632 1.17428113e-05 29.8143632"></polygon>
    </defs>
    <g id="Page-1" stroke="none" stroke-width="1" fill="none" fill-rule="evenodd">
        <g id="Under-construction" transform="translate(-521.000000, -606.000000)">
            <g id="LinkedIn-link" transform="translate(521.000000, 606.000000)">
                <g id="LinkedIn">
                    <mask id="mask-2" fill="white">
                        <use xlink:href="#path-1"></use>
                    </mask>
                    <g id="Clip-2"></g>
                    <path d="M4.03239535,6.62711628 C4.02913953,8.07455814 5.16053488,9.23106977 6.58309302,9.23525581 C8.03588372,9.23944186 9.20425581,8.11083721 9.20937209,6.69897674 C9.21448837,5.24060465 8.07402326,4.062 6.65448837,4.05827907 C5.19169767,4.05455814 4.03565116,5.18734884 4.03239535,6.62711628 M8.86983721,18.3126977 C8.86983721,16.0347907 8.86681395,13.7568837 8.87402326,11.4787442 C8.87472093,11.234093 8.81751163,11.137814 8.54913953,11.1406047 C7.25681395,11.154093 5.96425581,11.1533953 4.67193023,11.1410698 C4.41634884,11.1385116 4.36472093,11.227814 4.36495349,11.4631628 C4.37076744,16.0189767 4.37146512,20.5750233 4.3637907,25.1308372 C4.36332558,25.3950233 4.45053488,25.4643256 4.69844186,25.4624651 C5.95355814,25.4538605 7.20867442,25.4589767 8.46402326,25.4585116 C8.86890698,25.4582791 8.86983721,25.4571163 8.86983721,25.0629302 C8.87006977,22.8129302 8.86983721,20.5626977 8.86983721,18.3126977 M15.9023953,13.0045581 C15.9023953,12.4933953 15.8900698,11.9815349 15.9075116,11.4708372 C15.9163488,11.2117674 15.8284419,11.1387442 15.5733256,11.1413023 C14.3644884,11.1531628 13.155186,11.1464186 11.9458837,11.1468837 C11.5756512,11.1468837 11.5742558,11.1475814 11.5742558,11.5113023 C11.5737907,16.0408372 11.5763488,20.5706047 11.5679767,25.1001395 C11.5675116,25.3854884 11.6556512,25.4664186 11.9335581,25.4638605 C13.188907,25.4517674 14.4444884,25.4592093 15.7003023,25.4582791 C16.0733256,25.4580465 16.0742558,25.456186 16.0742558,25.092 C16.0744884,22.8133953 16.0682093,20.5345581 16.0796047,18.2557209 C16.0819302,17.7845581 16.1121628,17.3066512 16.1954186,16.8438605 C16.3682093,15.8801395 16.8119302,15.1017674 17.843093,14.8452558 C18.1533256,14.7680465 18.4861163,14.7533953 18.8079767,14.7573488 C19.8705349,14.7706047 20.5356512,15.2682791 20.7686744,16.3006047 C20.8977442,16.874093 20.948907,17.4752558 20.9542558,18.0645581 C20.9744884,20.4082791 20.9663488,22.7522326 20.9572791,25.096186 C20.9561163,25.3764186 21.0426279,25.4666512 21.3242558,25.464093 C22.5796047,25.4515349 23.835186,25.4522326 25.091,25.4636279 C25.3616977,25.4659535 25.4591395,25.3980465 25.4577442,25.1059535 C25.4465814,22.3901395 25.4786744,19.6738605 25.4356512,16.9585116 C25.4214651,16.0571163 25.2986744,15.1417674 25.0972791,14.2622326 C24.7349535,12.679907 23.8147209,11.5243256 22.1970465,11.0703721 C21.6412326,10.9145581 21.0500698,10.876186 20.4719302,10.8082791 C19.4937907,10.6933953 18.5712326,10.8913023 17.7061163,11.3566512 C16.9705349,11.7524651 16.3900698,12.316186 15.9023953,13.0045581 M14.9100698,29.8047907 C10.6870465,29.8047907 6.4637907,29.7906047 2.24076744,29.8143256 C1.12123256,29.8206047 0.175883721,29.0406047 0.0230930233,27.9845581 C0.00704651163,27.8747907 0.001,27.7629302 0.001,27.652 C-0.000162790698,19.1592093 -0.000162790698,10.6664186 0.000302325581,2.17362791 C0.000302325581,0.948976744 0.913325581,0.0196744186 2.14402326,0.0101395349 C3.47425581,-9.30232558e-05 4.80425581,0.00758139535 6.13448837,0.00758139535 C13.2879767,0.00758139535 20.4412326,0.0150232558 27.5944884,-9.30232558e-05 C28.7491395,-0.00241860465 29.5328605,0.78455814 29.7235581,1.51734884 C29.7765814,1.72153488 29.8163488,1.93618605 29.8165814,2.14618605 C29.8212326,10.6482791 29.8207674,19.1506047 29.8203023,27.6526977 C29.8200698,28.8582791 28.9033256,29.7938605 27.6912326,29.8017674 C26.0914651,29.8124651 24.4914651,29.8047907 22.8914651,29.8047907 C20.231,29.8050233 17.5707674,29.8050233 14.9100698,29.8047907" id="Fill-1" fill="#2B8CAD" mask="url(#mask-2)"></path>
                </g>
            </g>
        </g>
    </g>
</svg>