<?xml version="1.0" encoding="UTF-8"?>
<svg width="30px" height="30px" viewBox="0 0 30 30" version="1.1" xmlns="http://www.w3.org/2000/svg" xmlns:xlink="http://www.w3.org/1999/xlink">
    <!-- Generator: Sketch 51.3 (57544) - http://www.bohemiancoding.com/sketch -->
    <title>Pinterest</title>
    <desc>Created with Sketch.</desc>
    <defs></defs>
    <g id="Page-1" stroke="none" stroke-width="1" fill="none" fill-rule="evenodd">
        <g id="Under-construction" transform="translate(-805.000000, -606.000000)">
            <g id="Pinterest-link" transform="translate(805.000000, 606.000000)">
                <g id="Pinterest">
                    <path d="M15,30 C23.2842712,30 30,23.2842712 30,15 C30,6.71572875 23.2842712,0 15,0 C6.71572875,0 0,6.71572875 0,15 C0,23.2842712 6.71572875,30 15,30 Z" id="Oval" fill="#2B8CAD"></path>
                    <g id="pinterest-svgrepo-com" stroke-linecap="round" stroke-dasharray="8,9.600000000000001,8,9.600000000000001" transform="translate(6.857143, 5.142857)" fill="#FFFFFF">
                        <path d="M14.0045976,2.10806488 C12.5953166,0.748693101 10.6450041,0 8.51298824,0 C5.2562427,0 3.25318665,1.34137164 2.14633143,2.46658095 C0.782196349,3.85327436 0,5.69455153 0,7.51835089 C0,9.80826534 0.953263062,11.5658499 2.54960581,12.2197209 C2.65677243,12.2638373 2.76461883,12.2860562 2.8703459,12.2860562 C3.20712099,12.2860562 3.47395788,12.0646304 3.56640908,11.7094894 C3.62031229,11.5057423 3.7451534,11.0030645 3.79945648,10.784853 C3.91566029,10.3539346 3.82176953,10.1466518 3.56832848,9.8465558 C3.1066323,9.29763205 2.89161927,8.64854238 2.89161927,7.80378159 C2.89161927,5.29457086 4.75112004,2.62781877 8.1975265,2.62781877 C10.9321147,2.62781877 12.6307856,4.18949116 12.6307856,6.70332247 C12.6307856,8.28966469 12.2907315,9.75876497 11.6730439,10.8401793 C11.2438176,11.5916046 10.4890527,12.4873122 9.33037363,12.4873122 C8.8293297,12.4873122 8.3792299,12.2805115 8.09523837,11.9199463 C7.82696193,11.5791089 7.73850949,11.1388289 7.84643587,10.679946 C7.9683179,10.1614778 8.13454612,9.62067019 8.29541601,9.0978627 C8.58880462,8.14297163 8.86615823,7.24107649 8.86615823,6.52151307 C8.86615823,5.29075387 8.1131128,4.46375214 6.99246188,4.46375214 C5.56826551,4.46375214 4.45249307,5.91718266 4.45249307,7.77264297 C4.45249307,8.68261406 4.69317809,9.36324415 4.80214415,9.62456754 C4.62272004,10.3883679 3.55641219,14.929384 3.35415519,15.7856761 C3.23719163,16.2855415 2.53269108,20.2336782 3.69876785,20.5484796 C5.00891974,20.9021742 6.18003494,17.0569758 6.29923781,16.6224815 C6.39584772,16.2691083 6.73386243,14.9328796 6.94099791,14.1115029 C7.57348089,14.723628 8.59184367,15.1374704 9.58273502,15.1374704 C11.4507531,15.1374704 13.1307098,14.2928301 14.3131815,12.7593231 C15.4599843,11.2719013 16.0915875,9.19875185 16.0915875,6.92205625 C16.0915076,5.14221258 15.3307845,3.38752088 14.0045976,2.10806488 Z" id="Shape"></path>
                    </g>
                </g>
            </g>
        </g>
    </g>
</svg>