<?xml version="1.0" encoding="UTF-8"?>
<svg width="349px" height="485px" viewBox="0 0 349 485" version="1.1" xmlns="http://www.w3.org/2000/svg" xmlns:xlink="http://www.w3.org/1999/xlink">
    <!-- Generator: Sketch 51.3 (57544) - http://www.bohemiancoding.com/sketch -->
    <title>Right</title>
    <desc>Created with Sketch.</desc>
    <defs></defs>
    <g id="Page-1" stroke="none" stroke-width="1" fill="none" fill-rule="evenodd">
        <g id="About" transform="translate(-1091.000000, -78.000000)">
            <g id="Hero-2">
                <g id="background">
                    <g id="Right" transform="translate(1091.000000, 80.000000)">
                        <path d="M305.5,599 C368.184319,599 419,548.184319 419,485.5 C419,422.815681 368.184319,372 305.5,372 C242.815681,372 192,422.815681 192,485.5 C192,548.184319 242.815681,599 305.5,599 Z" id="Oval-2-Copy" stroke="#2B8CAD" stroke-width="4" stroke-linecap="round" stroke-dasharray="10,12,26,18"></path>
                        <path d="M83,30.3851864 L154.583013,0 L184.9682,71.5830132 L113.385186,101.9682 L83,30.3851864 Z" id="Rectangle-4-Copy-2" stroke="#2B8CAD" stroke-width="4" stroke-linecap="round" stroke-dasharray="10,12,26,18"></path>
                        <g id="Oval" transform="translate(207.000000, 12.000000)">
                            <ellipse id="Oval-2" fill="#FFDA00" cx="77.1625616" cy="77.4471154" rx="77.1625616" ry="77.4471154"></ellipse>
                            <path d="M98.8374384,181 C141.453144,181 176,146.325745 176,103.552885 C176,60.7800239 141.453144,26.1057692 98.8374384,26.1057692 C56.2217324,26.1057692 21.6748768,60.7800239 21.6748768,103.552885 C21.6748768,146.325745 56.2217324,181 98.8374384,181 Z" id="Oval-2-Copy" stroke="#2B8CAD" stroke-width="4" stroke-linecap="round" stroke-dasharray="10,12,26,18"></path>
                        </g>
                        <g id="Triangle" transform="translate(145.797958, 280.924451) rotate(-37.000000) translate(-145.797958, -280.924451) translate(36.761900, 196.649569)">
                            <path d="M83.8404751,30.4084625 L167.68095,168.549763 L0,168.549763 L83.8404751,30.4084625 Z" id="Triangle-2" fill="#FFDA00"></path>
                            <path d="M134.231641,0 L218.072117,138.141301 L50.3911664,138.141301 L134.231641,0 Z" id="Triangle-2-Copy" stroke="#2B8CAD" stroke-width="4" stroke-linecap="round" stroke-dasharray="10,12,26,18"></path>
                        </g>
                        <g id="Square-Copy" transform="translate(46.130264, 157.511142) rotate(10.000000) translate(-46.130264, -157.511142) translate(6.630264, 118.511142)">
                            <path d="M16.0707267,0 L78.2799912,0 L78.2799912,62.2092645 L16.0707267,62.2092645 L16.0707267,0 Z" id="Rectangle-4-Copy" fill="#FFDA00"></path>
                            <path d="M0,15.0339056 L62.2092645,15.0339056 L62.2092645,77.2431701 L0,77.2431701 L0,15.0339056 Z" id="Rectangle-4" stroke="#2B8CAD" stroke-width="4" stroke-linecap="round" stroke-dasharray="10,12,26,18"></path>
                        </g>
                    </g>
                </g>
            </g>
        </g>
    </g>
</svg>